<svg xmlns="http://www.w3.org/2000/svg" xmlns:xlink="http://www.w3.org/1999/xlink" width="405.217" height="77.475" viewBox="0 0 405.217 77.475">
  <defs>
    <clipPath id="clip-path">
      <path id="Контур_12459" data-name="Контур 12459" d="M4236,2264.9h6.183v2.734l-1.891-.245v9.691l-1.322,1.9-1.163.668v-12.016H4236Zm6.343,0h2.61l.923,3.732.843-3.732h2.61l-2.369,8.172,0,.407h1.2v.6l-.393-.036-2.765,1.873-.307.007,0-1.2h-1.431l0-1.243h1.433l.005-.825Zm7.628,0h3.734c1.063,0,1.431,1.136,1.646,1.737a6.09,6.09,0,0,1,.241,1.705,5.474,5.474,0,0,1-.241,1.7,3.328,3.328,0,0,1-.843,1.448,2.078,2.078,0,0,1-1.325.579c-.08,0-.884.089-1.044.089v-2.657l.481-.006a.567.567,0,0,0,.4-.29,1.763,1.763,0,0,0,.161-.708,1.416,1.416,0,0,0-.161-.58,1,1,0,0,0-.723-.29c-.13,0-.163.026-.16.129v7.448l-2.168-.609v-9.7Zm8.23,0h2.81l1.887,8.172.467,1.664a13.459,13.459,0,0,1-2.184.792l-.572-2.456H4258.4l-.427,1.949a14.6,14.6,0,0,0-2.174-.876l1.758-6.671Zm.763,5.6h1.244l-.683-2.735Zm5.339-5.6h2.289v3.732h1.926V2264.9h2.369v16.294l-2.369-2.006v-7.693h-1.926v5.853l-2.289-1.763V2264.9Z" transform="translate(-4236 -2264.899)" clip-rule="evenodd"/>
    </clipPath>
  </defs>
  <g id="Сгруппировать_5343" data-name="Сгруппировать 5343" transform="translate(-1273.781 -2165.503)">
    <g id="Слой_x0020_1" transform="translate(1273.781 2165.503)">
      <g id="_1553483352928">
        <path id="Контур_12456" data-name="Контур 12456" d="M0,0H77.475V77.475H0Z" fill="#448bc4" fill-rule="evenodd"/>
        <g id="Сгруппировать_5318" data-name="Сгруппировать 5318" transform="translate(21.292 11.384)">
          <path id="Контур_12457" data-name="Контур 12457" d="M4236,2264.9h6.183v2.734l-1.891-.245v9.691l-1.322,1.9-1.163.668v-12.016H4236Zm6.343,0h2.61l.923,3.732.843-3.732h2.61l-2.369,8.172,0,.407h1.2v.6l-.393-.036-2.765,1.873-.307.007,0-1.2h-1.431l0-1.243h1.433l.005-.825Zm7.628,0h3.734c1.063,0,1.431,1.136,1.646,1.737a6.09,6.09,0,0,1,.241,1.705,5.474,5.474,0,0,1-.241,1.7,3.328,3.328,0,0,1-.843,1.448,2.078,2.078,0,0,1-1.325.579c-.08,0-.884.089-1.044.089v-2.657l.481-.006a.567.567,0,0,0,.4-.29,1.763,1.763,0,0,0,.161-.708,1.416,1.416,0,0,0-.161-.58,1,1,0,0,0-.723-.29c-.13,0-.163.026-.16.129v7.448l-2.168-.609v-9.7Zm8.23,0h2.81l1.887,8.172.467,1.664a13.459,13.459,0,0,1-2.184.792l-.572-2.456H4258.4l-.427,1.949a14.6,14.6,0,0,0-2.174-.876l1.758-6.671Zm.763,5.6h1.244l-.683-2.735Zm5.339-5.6h2.289v3.732h1.926V2264.9h2.369v16.294l-2.369-2.006v-7.693h-1.926v5.853l-2.289-1.763V2264.9Z" transform="translate(-4236 -2264.899)" fill="#fefefe" fill-rule="evenodd"/>
          <g id="Сгруппировать_5317" data-name="Сгруппировать 5317" transform="translate(0)" clip-path="url(#clip-path)">
            <g id="Сгруппировать_5316" data-name="Сгруппировать 5316" transform="translate(0.18 13.907)">
              <path id="_1" data-name="1" d="M4271.8,5037.781h35.149l-4.593-2.761-2.935-2.3-1.595.92c-1.4-.307-2.615-1.074-3.955-1.125L4291,5031.8l-2.68,1.738-4.848-1.636-3,2.147h-3.763l-2.36,2.4Z" transform="translate(-4271.8 -5031.8)" fill="#009cdb" fill-rule="evenodd"/>
              <path id="Контур_12458" data-name="Контур 12458" d="M4271.8,6233.481h35.149l-4.593-2.761-2.935-2.3-1.595.92c-1.4-.307-2.616-1.074-3.955-1.125L4291,6227.5l-2.679,1.738-4.848-1.636-3,2.147h-3.764l-2.36,2.4Z" transform="translate(-4271.8 -6221.49)" fill="#fefefe" fill-rule="evenodd"/>
            </g>
          </g>
          <path id="Контур_12460" data-name="Контур 12460" d="M4236,2264.9h6.183v2.734l-1.891-.245v9.691l-1.322,1.9-1.163.668v-12.016H4236Zm6.343,0h2.61l.923,3.732.843-3.732h2.61l-2.369,8.172,0,.407h1.2v.6l-.393-.036-2.765,1.873-.307.007,0-1.2h-1.431l0-1.243h1.433l.005-.825Zm7.628,0h3.734c1.063,0,1.431,1.136,1.646,1.737a6.09,6.09,0,0,1,.241,1.705,5.474,5.474,0,0,1-.241,1.7,3.328,3.328,0,0,1-.843,1.448,2.078,2.078,0,0,1-1.325.579c-.08,0-.884.089-1.044.089v-2.657l.481-.006a.567.567,0,0,0,.4-.29,1.763,1.763,0,0,0,.161-.708,1.416,1.416,0,0,0-.161-.58,1,1,0,0,0-.723-.29c-.13,0-.163.026-.16.129v7.448l-2.168-.609v-9.7Zm8.23,0h2.81l1.887,8.172.467,1.664a13.459,13.459,0,0,1-2.184.792l-.572-2.456H4258.4l-.427,1.949a14.6,14.6,0,0,0-2.174-.876l1.758-6.671Zm.763,5.6h1.244l-.683-2.735Zm5.339-5.6h2.289v3.732h1.926V2264.9h2.369v16.294l-2.369-2.006v-7.693h-1.926v5.853l-2.289-1.763V2264.9Z" transform="translate(-4236 -2264.899)" fill="none" fill-rule="evenodd"/>
          <path id="Контур_12461" data-name="Контур 12461" d="M4236,5600.1h34.887v30.7c0,4.992-5.128,5.152-5.952,5.152h-22.92c-.887,0-6.015.269-6.015-5.152Zm11.534,9.032v17h11.857v-17h10.534v-8.07h-32.963v8.07Z" transform="translate(-4236 -5583.335)" fill="#fefefe" fill-rule="evenodd"/>
          <path id="Контур_12462" data-name="Контур 12462" d="M4238.6,4008.534l2.381-3.024h3.711l3-1.953,4.739,1.269,2.745-1.526c.721.277,4.734,2.173,5.169,2.29l3.012-1.312,3.084,2.51,4.45,4.069H4236l1.491-1.37Zm27.511-1.338-.014-.01-2.793-2.226-2.861,1.2-.056-.015c-.493-.127-4.676-2.14-5.1-2.265l-2.771,1.547-4.722-1.263-2.9,1.866h-3.657l-2.277,2.893-1.182.768,4.089-1.847,2.322,1.23,2.875-3.042,3.617,2.76,1.327-1.717,1.895.783c.137,0,1.1.642,1.1.486l1.154-2.141,5.35,2.16,1.836-1.342,1.03,1.33,1.861-.03Z" transform="translate(-4235.999 -3994.562)" fill="#fefefe" fill-rule="evenodd"/>
        </g>
        <path id="Контур_12463" data-name="Контур 12463" d="M19273.051,3252.262h4.16v-15.07h5.752v-3.835H19267.3v3.835h5.752Zm22.605.3c5.076,0,8.293-2.809,8.293-8.535v-10.667h-4.16v10.83c0,3-1.539,4.538-4.078,4.538s-4.08-1.594-4.08-4.672v-10.695h-4.156v10.8C19287.475,3249.724,19290.58,3252.56,19295.656,3252.56Zm14.152-.3h4.158v-6.049h3.215l4.1,6.049h4.863l-4.619-6.751a5.869,5.869,0,0,0,4.053-5.861,5.974,5.974,0,0,0-1.621-4.375,7.534,7.534,0,0,0-5.51-1.917h-8.643Zm4.158-9.723v-5.428h4.135c2.025,0,3.266.918,3.266,2.7,0,1.647-1.16,2.727-3.187,2.727Zm15.369,9.723h4.24l1.729-4.24h7.992l1.729,4.24h4.35l-8.1-19.04h-3.834Zm7.453-7.913,2.51-6.131,2.514,6.131Zm17.121,7.913h4.107v-12.018l9.154,12.018h3.539v-18.9h-4.105V3245l-8.859-11.64h-3.836Zm45.752.3c5.078,0,8.291-2.809,8.291-8.534v-10.668h-4.156v10.83c0,3-1.539,4.537-4.078,4.537s-4.08-1.593-4.08-4.672v-10.695h-4.16v10.8C19391.479,3249.724,19394.586,3252.56,19399.662,3252.56Zm14.154-.3h4.105v-12.018l9.156,12.018h3.535v-18.905h-4.105V3245l-8.857-11.641h-3.834Zm23.145,0h4.16v-18.905h-4.16Zm16.529.135h3.672l7.645-19.041h-4.484l-4.941,13.315-4.943-13.315h-4.59Zm15.852-.135h14.395v-3.7h-10.264v-3.97h8.916v-3.7h-8.916v-3.834h10.131v-3.7h-14.262Zm19.717,0h4.16v-6.05h3.213l4.1,6.05h4.861l-4.617-6.752a5.87,5.87,0,0,0,4.051-5.861,5.97,5.97,0,0,0-1.621-4.375,7.525,7.525,0,0,0-5.508-1.918h-8.643Zm4.16-9.723v-5.428h4.131c2.025,0,3.268.918,3.268,2.7,0,1.647-1.162,2.727-3.187,2.727Zm23.711,9.993c4.078,0,6.939-2.106,6.939-5.86,0-3.349-2.158-4.727-5.992-5.726-3.27-.837-4.08-1.242-4.08-2.485,0-.972.838-1.7,2.43-1.7a8.886,8.886,0,0,1,4.918,1.863l2.158-3.132a10.944,10.944,0,0,0-7.021-2.4c-3.861,0-6.617,2.269-6.617,5.7,0,3.809,2.459,4.861,6.266,5.833,3.16.811,3.809,1.351,3.809,2.4,0,1.161-1.025,1.836-2.729,1.836a8.68,8.68,0,0,1-5.645-2.3l-2.457,2.943A12.03,12.03,0,0,0,19516.93,3252.533Zm12.369-.27h4.16v-18.905h-4.16Zm14.908,0h4.16v-15.07h5.752v-3.835h-15.664v3.835h5.752Zm20.039,0h4.16v-7.535l7.266-11.371h-4.727l-4.59,7.589-4.512-7.589h-4.863l7.266,11.451Z" transform="translate(-19170.455 -3204.949)" fill="#448bc4"/>
      </g>
    </g>
  </g>
</svg>
